<?xml version="1.0" standalone="no"?>
<!DOCTYPE svg PUBLIC "-//W3C//DTD SVG 20010904//EN"
 "http://www.w3.org/TR/2001/REC-SVG-20010904/DTD/svg10.dtd">
<svg version="1.0" xmlns="http://www.w3.org/2000/svg"
 width="405.000000pt" height="360.000000pt" viewBox="0 0 405.000000 360.000000"
 preserveAspectRatio="xMidYMid meet">

<g transform="translate(0.000000,360.000000) scale(0.100000,-0.100000)"
fill="#000000" stroke="none">
<path d="M0 1800 l0 -1800 2025 0 2025 0 0 1800 0 1800 -2025 0 -2025 0 0
-1800z m1978 532 l2 -682 -120 0 -120 0 0 26 c0 22 4 25 21 21 26 -7 62 6 89
33 20 20 20 30 20 596 l0 577 -52 -7 c-60 -8 -193 -43 -223 -59 -29 -15 -35
-27 -35 -80 l0 -48 -52 3 -53 3 2 85 c1 47 2 88 3 92 0 8 157 65 233 85 62 15
242 42 267 39 13 -1 15 -86 18 -684z m357 649 c88 -22 223 -68 243 -83 8 -7
12 -40 12 -99 l0 -89 -50 0 -50 0 0 59 0 59 -49 17 c-69 23 -208 55 -237 55
l-24 0 0 -195 0 -195 59 0 c57 0 91 15 91 41 0 5 7 9 15 9 12 0 15 -15 15 -75
0 -80 -13 -97 -42 -53 -12 17 -27 22 -76 26 l-62 4 0 -353 c1 -263 4 -358 13
-370 18 -24 52 -39 86 -39 26 0 31 -4 31 -25 l0 -26 -117 3 -118 3 -3 679 -2
679 92 -7 c51 -3 129 -15 173 -25z m-1845 -1611 c0 -17 -7 -20 -50 -20 l-50 0
0 -155 c0 -131 -2 -155 -15 -155 -13 0 -15 24 -15 155 l0 155 -50 0 c-43 0
-50 3 -50 20 0 19 7 20 115 20 108 0 115 -1 115 -20z m282 3 c51 -31 73 -78
73 -158 0 -115 -57 -179 -160 -179 -101 0 -160 64 -160 174 0 76 22 122 75
157 42 29 128 31 172 6z m304 -16 c37 -43 33 -91 -11 -133 -19 -18 -31 -35
-26 -38 8 -5 71 -131 71 -142 0 -2 -8 -4 -19 -4 -13 0 -26 18 -45 60 -32 71
-49 90 -82 90 -23 0 -24 -2 -24 -75 0 -68 -2 -75 -20 -75 -19 0 -20 7 -20 176
l0 176 76 -4 c69 -3 79 -6 100 -31z m260 2 c41 -42 33 -123 -16 -149 -19 -10
-18 -14 20 -90 36 -73 38 -80 21 -80 -15 0 -31 20 -58 73 -34 65 -41 72 -70
75 l-33 3 0 -75 c0 -69 -2 -76 -20 -76 -19 0 -20 7 -20 176 l0 176 75 -4 c65
-3 79 -7 101 -29z m254 11 c0 -18 -7 -20 -65 -20 l-65 0 0 -60 0 -60 60 0 c47
0 60 -3 60 -15 0 -12 -13 -15 -60 -15 l-60 0 0 -65 0 -65 70 0 c56 0 70 -3 70
-15 0 -12 -17 -15 -90 -15 l-90 0 0 175 0 175 85 0 c78 0 85 -2 85 -20z m350
0 c0 -18 -7 -20 -65 -20 l-65 0 0 -60 0 -60 60 0 c47 0 60 -3 60 -15 0 -12
-13 -15 -60 -15 l-60 0 0 -80 c0 -73 -2 -80 -20 -80 -19 0 -20 7 -20 175 l0
175 85 0 c78 0 85 -2 85 -20z m236 -13 c36 -42 33 -92 -9 -130 l-32 -31 37
-70 c43 -82 44 -86 20 -86 -13 0 -28 20 -48 62 -36 76 -48 88 -85 88 l-29 0 0
-75 c0 -60 -3 -75 -15 -75 -13 0 -15 26 -15 176 l0 176 76 -4 c69 -3 79 -6
100 -31z m274 -109 c29 -79 59 -158 66 -176 13 -32 13 -33 -8 -30 -16 2 -27
16 -39 48 l-17 45 -70 3 -70 3 -18 -51 c-12 -35 -23 -50 -36 -50 -10 0 -18 3
-18 7 0 8 119 323 127 336 16 26 36 -6 83 -135z m243 5 l102 -138 3 138 c2
113 5 137 17 137 13 0 15 -28 15 -175 0 -135 -3 -175 -13 -175 -7 0 -57 61
-112 136 l-100 136 -3 -136 c-2 -128 -4 -136 -22 -136 -19 0 -20 7 -20 168 0
161 3 182 22 182 4 0 54 -62 111 -137z m247 65 l1 -73 65 73 c38 41 74 72 85
72 10 0 19 -3 19 -6 0 -3 -31 -40 -70 -82 -38 -43 -70 -80 -70 -83 0 -3 34
-43 76 -90 68 -75 74 -84 54 -87 -21 -3 -56 29 -142 132 -17 20 -17 19 -18
-56 0 -71 -2 -78 -20 -78 -19 0 -20 7 -20 175 0 168 1 175 20 175 18 0 20 -7
20 -72z m250 -88 l0 -160 65 0 c51 0 65 -3 65 -15 0 -12 -16 -15 -85 -15 l-85
0 0 175 c0 168 1 175 20 175 19 0 20 -7 20 -160z m210 -15 c0 -168 -1 -175
-20 -175 -19 0 -20 7 -20 175 0 168 1 175 20 175 19 0 20 -7 20 -175z m199 38
l101 -137 0 137 c0 130 1 137 20 137 19 0 20 -7 20 -175 0 -142 -3 -175 -14
-175 -7 0 -59 62 -115 137 l-101 138 0 -138 c0 -130 -1 -137 -20 -137 -19 0
-20 7 -20 175 0 145 2 175 14 175 8 0 60 -62 115 -137z m-1145 -389 c28 -11
17 -29 -16 -29 -26 0 -34 -5 -36 -21 -2 -15 9 -28 38 -48 36 -23 41 -31 38
-59 -4 -39 -41 -63 -81 -53 -42 10 -34 33 9 28 37 -5 57 9 47 34 -2 7 -22 24
-44 39 -35 22 -40 30 -37 58 4 40 44 65 82 51z m-1330 -100 c39 -105 41 -114
25 -114 -5 0 -17 16 -25 35 -12 30 -19 35 -49 35 -30 0 -37 -5 -49 -35 -14
-32 -36 -48 -36 -26 0 25 74 201 85 201 7 0 29 -43 49 -96z m208 24 l53 -72 3
72 c2 55 6 72 17 72 12 0 15 -19 15 -99 0 -55 -4 -102 -9 -105 -5 -3 -36 31
-70 76 l-61 82 0 -82 c0 -48 -4 -82 -10 -82 -6 0 -10 42 -10 105 0 58 4 105 9
105 5 0 33 -32 63 -72z m228 62 c0 -5 -18 -10 -40 -10 -39 0 -40 -1 -40 -35 0
-33 2 -35 35 -35 19 0 35 -4 35 -10 0 -5 -16 -10 -35 -10 -33 0 -35 -2 -35
-35 0 -34 1 -35 41 -35 28 0 39 -4 37 -12 -3 -8 -23 -13 -54 -13 l-49 0 -3
103 -3 102 56 0 c30 0 55 -4 55 -10z m66 -59 c9 -39 21 -68 24 -66 4 3 16 34
26 70 10 36 24 65 31 65 7 0 13 -6 13 -12 0 -7 9 -40 19 -73 l18 -60 22 73
c13 43 27 72 35 72 11 0 7 -23 -14 -96 -16 -53 -33 -101 -39 -107 -12 -12 -12
-11 -39 78 l-18 60 -24 -70 c-14 -38 -29 -69 -34 -68 -8 2 -65 172 -66 196 0
4 6 7 14 7 8 0 20 -26 32 -69z m304 -21 l0 -90 41 0 c28 0 39 -4 37 -12 -3 -8
-23 -13 -54 -13 l-49 0 -3 103 c-2 86 0 102 13 102 12 0 15 -16 15 -90z m128
-10 c-4 -134 -22 -135 -26 -2 -2 87 0 102 13 102 13 0 15 -15 13 -100z m142
90 c0 -5 -16 -10 -35 -10 -33 0 -35 -2 -35 -35 0 -33 2 -35 35 -35 19 0 35 -4
35 -10 0 -5 -16 -10 -34 -10 -34 0 -35 -1 -38 -47 -6 -88 -23 -51 -26 55 l-3
102 51 0 c27 0 50 -4 50 -10z m140 0 c0 -5 -18 -10 -40 -10 -39 0 -40 -1 -40
-35 0 -33 2 -35 35 -35 19 0 35 -4 35 -10 0 -5 -16 -10 -35 -10 -33 0 -35 -2
-35 -35 0 -34 1 -35 40 -35 29 0 40 -4 40 -16 0 -12 -10 -14 -52 -12 l-53 3
-3 103 -3 102 56 0 c30 0 55 -4 55 -10z m344 -37 l24 -48 23 48 c13 26 29 47
36 47 18 0 17 -3 -14 -63 -15 -29 -29 -72 -32 -97 -8 -60 -25 -57 -32 5 -3 28
-16 71 -28 96 -21 40 -26 45 -52 41 l-28 -4 -3 -92 c-4 -120 -22 -119 -26 2
l-3 92 -29 0 c-17 0 -30 5 -30 10 0 6 35 10 85 10 l85 0 24 -47z m146 -43 l0
-90 41 0 c28 0 39 -4 37 -12 -3 -8 -23 -13 -54 -13 l-49 0 -3 103 c-2 86 0
102 13 102 12 0 15 -16 15 -90z m200 80 c0 -5 -18 -10 -40 -10 -39 0 -40 -1
-40 -35 0 -34 1 -35 40 -35 22 0 40 -4 40 -10 0 -5 -18 -10 -40 -10 -39 0 -40
-1 -40 -35 0 -35 0 -35 46 -35 65 0 53 -24 -14 -28 l-52 -3 0 105 0 106 50 0
c28 0 50 -4 50 -10z"/>
<path d="M622 1340 c-82 -50 -82 -213 -1 -255 64 -33 145 -10 173 49 20 43 21
118 0 161 -29 61 -111 82 -172 45z"/>
<path d="M940 1285 l0 -65 31 0 c32 0 69 15 81 34 4 6 8 25 8 43 0 39 -21 53
-79 53 l-41 0 0 -65z"/>
<path d="M1200 1284 l0 -67 47 6 c72 8 102 55 67 105 -12 18 -25 22 -65 22
l-49 0 0 -66z"/>
<path d="M2032 1288 c3 -57 5 -63 27 -66 57 -8 101 22 101 68 0 43 -24 60 -81
60 l-50 0 3 -62z"/>
<path d="M2376 1312 c-6 -11 -46 -121 -46 -129 0 -1 23 -3 50 -3 34 0 50 4 49
13 -1 28 -46 130 -53 119z"/>
<path d="M1061 780 c-14 -42 -15 -40 15 -40 22 0 24 3 18 23 -14 47 -21 51
-33 17z"/>
</g>
</svg>
